<?xml version="1.0" encoding="UTF-8"?>
<!DOCTYPE svg PUBLIC "-//W3C//DTD SVG 1.1//EN" "http://www.w3.org/Graphics/SVG/1.1/DTD/svg11.dtd">
<!-- Creator: CorelDRAW 2020 (64-Bit) -->
<svg xmlns="http://www.w3.org/2000/svg" xml:space="preserve" width="201px" height="217px" version="1.1" style="shape-rendering:geometricPrecision; text-rendering:geometricPrecision; image-rendering:optimizeQuality; fill-rule:evenodd; clip-rule:evenodd"
viewBox="0 0 42.161 45.372"
 xmlns:xlink="http://www.w3.org/1999/xlink"
 xmlns:xodm="http://www.corel.com/coreldraw/odm/2003">
 <defs>
  <style type="text/css">
   <![CDATA[
    .fil0 {fill:none}
    .fil4 {fill:#00B4FF}
    .fil7 {fill:#0194A6}
    .fil6 {fill:#662371}
    .fil1 {fill:#CCCCCC}
    .fil3 {fill:#E53729}
    .fil8 {fill:#FB9946}
    .fil5 {fill:#FF535C}
    .fil9 {fill:white}
    .fil2 {fill:url(#id2)}
   ]]>
  </style>
   <mask id="id0">
  <linearGradient id="id1" gradientUnits="userSpaceOnUse" x1="-0.27" y1="1.166" x2="26.672" y2="25.985">
   <stop offset="0" style="stop-opacity:1; stop-color:white"/>
   <stop offset="1" style="stop-opacity:0; stop-color:white"/>
  </linearGradient>
    <rect style="fill:url(#id1)" x="8.879" y="9.757" width="23.73" height="21.357"/>
   </mask>
  <linearGradient id="id2" gradientUnits="userSpaceOnUse" x1="36.423" y1="32.786" x2="11.381" y2="16.396">
   <stop offset="0" style="stop-opacity:1; stop-color:#004763"/>
   <stop offset="1" style="stop-opacity:1; stop-color:#0275A3"/>
  </linearGradient>
 </defs>
 <g id="Katman_x0020_1">
  <metadata id="CorelCorpID_0Corel-Layer"/>
  <rect class="fil0" width="42.161" height="45.372"/>
  <path class="fil1" d="M12.27 35.506c0.151,0.599 0.363,1.151 0.655,1.628 1.26,2.058 3.29,3.473 6.625,3.461 6.744,-0.024 13.517,0.077 20.256,-0.004 0.295,-3.239 0.038,-7.741 0.039,-11.117 0.001,-2.684 0.315,-8.781 -0.143,-11.071 -0.492,-2.458 -1.781,-3.901 -3.501,-4.736l-0.325 0.303 -0.342 12.17 -23.264 9.366z"/>
  <path class="fil2" d="M10.954 26.731c0.001,2.936 -0.459,6.914 0.943,9.204 1.259,2.057 3.29,3.472 6.624,3.46 6.745,-0.024 13.518,0.077 20.257,-0.004 0.295,-3.239 0.038,-7.741 0.039,-11.117 0.001,-2.684 0.314,-8.781 -0.144,-11.071 -1.514,-7.572 -10.596,-5.527 -16.552,-5.646 -0.413,-0.718 -0.208,-1.22 -0.879,-1.592 -0.628,-0.348 -1.551,-0.235 -1.992,0.186 -1.105,1.055 0.223,2.928 -1.162,3.644 -1.409,0.728 -2.458,-0.726 -3.331,-1.287 -1.241,-0.795 -2.913,-0.236 -3.454,0.821 -0.803,1.568 0.555,2.833 0.954,3.91 1.096,2.968 -3.131,1.9 -3.363,4.024 -0.097,0.888 0.37,1.237 0.998,1.574 1.407,0.757 1.061,1.37 1.062,3.894z"/>
  <path class="fil3" d="M9.545 6.747c-0.961,0.249 -1.795,1.406 -1.444,2.622 0.251,0.868 1.334,1.796 2.653,1.376 2.317,-0.736 1.605,-4.73 -1.209,-3.998z"/>
  <path class="fil4" d="M16.338 10.095c-2.035,0.933 -0.545,3.252 1.009,2.605 1.54,-0.641 0.685,-3.382 -1.009,-2.605z"/>
  <path class="fil5" d="M9.316 16.784c-1.83,0.884 -0.418,3.186 1.139,2.568 1.537,-0.61 0.7,-3.455 -1.139,-2.568z"/>
  <path class="fil6" d="M4.173 7.52c-0.457,0.172 -0.822,0.37 -0.58,1.186 0.137,0.464 0.713,0.792 1.349,0.538 1.024,-0.409 0.322,-2.134 -0.769,-1.724z"/>
  <path class="fil7" d="M16.941 6.457l0.728 -0.005c0.928,-0.895 0.622,-1.959 -0.513,-1.859 -1.167,0.104 -0.881,1.231 -0.215,1.864z"/>
  <path class="fil8" d="M6.978 12.04c-0.355,0.2 -0.934,0.383 -0.537,1.221 0.165,0.346 0.695,0.734 1.259,0.423 1.073,-0.594 0.261,-2.197 -0.722,-1.644z"/>
  <path class="fil9" style="mask:url(#id0)" d="M10.954 26.731c0,1.324 -0.093,2.861 -0.067,4.358 0.351,0.015 0.703,0.023 1.058,0.023 11.412,0 20.662,-7.688 20.662,-17.172 0,-0.78 -0.064,-1.547 -0.185,-2.299 -3.279,-0.542 -7.211,-0.022 -10.301,-0.084 -0.413,-0.718 -0.208,-1.22 -0.879,-1.592 -0.628,-0.348 -1.551,-0.235 -1.992,0.186 -1.105,1.055 0.223,2.928 -1.162,3.644 -1.409,0.728 -2.458,-0.726 -3.331,-1.287 -1.241,-0.795 -2.913,-0.236 -3.454,0.821 -0.803,1.568 0.555,2.833 0.954,3.91 1.096,2.968 -3.131,1.9 -3.363,4.024 -0.097,0.888 0.37,1.237 0.998,1.574 1.407,0.757 1.061,1.37 1.062,3.894z"/>
  <path class="fil9" d="M22.762 25.12c0.435,-1.74 2.542,-3.257 4.741,-2.19 2.752,1.336 2.605,6.29 0.105,7.743 -0.983,0.572 -2.169,0.617 -3.113,0.051 -1.453,-0.872 -2.328,-3.228 -1.733,-5.604zm6.876 -3.561c-0.599,-0.359 -0.464,-0.534 -1.402,-1.259 -0.558,-0.431 -1.039,-0.712 -1.888,-0.885 -8.176,-1.667 -10.607,11.984 -4.294,15.135 1.345,0.671 2.85,0.963 4.465,0.54 1.911,-0.5 2.069,-1.289 3.243,-2.173 0.479,0.66 0.082,2.721 2.381,2.348 1.601,-0.26 1.433,-1.897 1.43,-3.461l0.003 -14.569c0.003,-1.55 0.076,-3.312 -1.753,-3.334 -1.899,-0.022 -2.152,0.933 -2.162,2.641 -0.011,1.656 0.053,3.37 -0.023,5.017z"/>
 </g>
</svg>
